/* XPM */
static char * C:\Users\ejei0\workspace\fire_1_xpm[] = {
"64 64 7 1",
" 	c blank",
".	c blank",
"+	c #F85800",
"@	c #D83000",
"#	c #F88800",
"$	c #F89800",
"%	c #F8C000",
"                                                                ",
"                                                                ",
"                                                                ",
"                                                                ",
"                ................................                ",
"                ................................                ",
"                ................................                ",
"                ..............+.................                ",
"                ..............++................                ",
"                ...............@................                ",
"                ................................                ",
"                .................++.............                ",
"                ..................++............                ",
"                ..................@+@...........                ",
"                ................@..@+...........                ",
"                .................@.@............                ",
"                .................@@@............                ",
"                ................@+@@............                ",
"                ................@++@............                ",
"                ................@+++@...........                ",
"                ................@#++@...........                ",
"                ................@#++@...........                ",
"                ...............@@+++@...........                ",
"                ..............@@++++@...........                ",
"                .............@@+#+@@............                ",
"                ..........@@@+###+@.............                ",
"                .........@+$$$$#+@..............                ",
"                .........@#$$$$#+@..............                ",
"                ........@+$%%%$#+@.@@@@.........                ",
"                .......@@#%%%%$$#+@+##+@........                ",
"                .......@+#%%%%$$$##$$$##@.......                ",
"                .......@+#%%%%%$$$$$$$$##@......                ",
"                .......@@+#$%%%$$$$$$$$$#+@.....                ",
"                ........@@+#$$$$$$$$$%%$#@@.....                ",
"                ..........@++##$$$$%%%%%#@@.....                ",
"                ........@@++++++#$$%%%%%#+@@....                ",
"                ......@@+$%%%$#++#$%%%%%$#+@@...                ",
"                .....@+#$%%%%%$#++$$%%%%$$#+@@..                ",
"                ..@..@#$%%%%%%%$+++#$%%$$$$#+@..                ",
"                ..@@@@$$%%%%%%%%$#+++$$$$$$$+@..                ",
"                ..@@+#$$$%%%$%%%%%%$++$$$$$$+@..                ",
"                ..@+#$$$$$$$$%%%%%%%#+#$%%$$#@@.                ",
"                .@@#$$$$$$$#%%%%%%%%$++%%%%$$+@.                ",
"                .@@$$$$$$$##%%%%%%%%%++%%%%$$#@@                ",
"                @@+$$$$$$$#+$%%%%%%%$++%%%$$$#+@                ",
"                @@+$$$$$$##+#%%%%%%%+++$$$$$$#+@                ",
"                @@+#$$$$$$#++#%%%%%#++#$$$#+$#+@                ",
"                .@++$$$$$###+++###+++#$$$#++##@.                ",
"                .@@+#$$$$#$$#+++++++#$$$$#+@#+@.                ",
"                ..@++#$###$$$##+++##$$$$$+@@++@.                ",
"                ..@@++++###########$%%$$#+@@@@..                ",
"                ...@@++++++#####$$%%%%$$+@@.@@..                ",
"                ....@@@@@@++####$$%%%%$#+@..+@..                ",
"                ......@@@@@+++##$$%%%$#+@@.@+@..                ",
"                .........@@@++#$$$$$$#++@@.+@...                ",
"                ........@+####$$$$$#+++@@.......                ",
"                .........@@+###$$$#++@@@........                ",
"                ...........@@+####+@@@..........                ",
"                .............@@++@@@............                ",
"                ................................                ",
"                                                                ",
"                                                                ",
"                                                                ",
"                                                                "};
