/* XPM */
static char * C:\Users\ejei0\workspace\fire_2_xpm[] = {
"64 64 8 1",
" 	c None",
".	c blank",
"+	c blank",
"@	c #F85800",
"#	c #D83000",
"$	c #F88800",
"%	c #F89800",
"&	c #F8C000",
"................................................................",
"................................................................",
"................................................................",
"................................................................",
"................++++++++++++++++++++++++++++++++................",
"................++++++++++++++++++++++++++++++++................",
"................++++++++++++++++++++++++++++++++................",
"................+++++++++++++@++++++++++++++++++................",
"................++++++++++++++++++++++++++++++++................",
"................++++++++++++++++++++++++++++++++................",
"................++++++++++++++++++++++++++++++++................",
"................+++++++++++++++##+++++++++++++++................",
"................++++++++++++++++##++++++++++++++................",
"................++++++++++++++++###+++++++++++++................",
"................+++++++++++++++####+++++++++++++................",
"................+++++++++++++#####++++++++++++++................",
"................++++++++++++##@@#+++++++++++++++................",
"................++++++++++++#@@#++++++++++++++++................",
"................+++++++++++#@@@#++++++++++++++++................",
"................+++++++++++#@@@#++++++++++++++++................",
"................+++++++++++#@@@#++++++++++++++++................",
"................++++++++++++#@$###++++++++++++++................",
"................++++++++++++#$$@@##+++++++++++++................",
"................+++++++++++#@$%$$@##++++++++++++................",
"................++++++++++#@$%%$$$##++++++++++++................",
"................++++++++++#@$%%%%%@##+++++++++++................",
"................++++++++++##@$%%%%$@####++++++++................",
"................+++++++++++##@$%%%$$$%$@#+++++++................",
"................++++++++++++###@$$%%%%%%@#++++++................",
"................++++++++++++++##@%%%&&%%$#++++++................",
"................++++++++++++##@$%%%&&&&%$@#+++++................",
"................+++++++++++#@$%%%%%&&&&%$@##++++................",
"................++++++++++#$%%%%%%%%&&&%$@@##+++................",
"................+++++++++#@%%%%%%%%%%%%%%$@@##++................",
"................++++++++##%%%%%%%%%%%%%%%$$$@#++................",
"................++++++++##%%$@@@@@@$$%%%%%%%$#++................",
"................+#++++++#@@@@$%&&%$@@$%%%%%%$#++................",
"................+##++#++#@@$%&&&&&&$@@$%%&&&%@#+................",
"................+##+##+#@@$&&&&&&&&&$@@$&&&&&$#+................",
"................++#+#@##@$&&&&&&&&&&&$@@&&&&&&#+................",
"................++++#$@@@%&&&&&&&&&&&$@@&&&&&&@#................",
"................++++#$$@%%&&&&&&&&&&&%@@&&&&&&$#................",
"................++++#$%$$%&&&&&&&&&&&%@@&&&&&%$#................",
"................+++##$%%%%%&&&&&&&&&&%@@%%&&%$$#................",
"................+++##%%%%%%%&&&&&&&&%$@@%%%$$$@#................",
"................++##@%%%&&%%%%&&&&&%$@@$%%%$@@##................",
"................++##$%%&&&&%%%%%%%%$@@@%%%$@@###................",
"................++##%%%&&&&%%$$@@@@@@@%%%%@@###+................",
"................+##@%%%%&&&%%%$$$@@@$%&&%$@####+................",
"................+##@$%%%%%%%%%%$$$$%%&&&%@@####+................",
"................+##@@$%%%%%%%%%$$%%%%&&&$@#####+................",
"................++##@@%%%%%%%%$$$%%%%%%%$@@###@+................",
"................++##@@@$%%%%%%$$%%%%%%%%$@@##@@+................",
"................+++##@@@@$%$$$$$%%%%%%%%$@@#+@++................",
"................++++###@@@@$$$$$%%%%%%%$@@##++++................",
"................+++++#####@@@$$$$$%%%%$@@@#+++++................",
"................+++++++######@$$$$$$$$@@@##+++++................",
"................++++++++++++###@@@@@@@@###++++++................",
"................++++++++++++++##########++++++++................",
"................++++++++++++++++++++++++++++++++................",
"................................................................",
"................................................................",
"................................................................",
"................................................................"};
