/* XPM */
static char * C:\Users\ejei0\workspace\fire_3_xpm[] = {
"64 64 8 1",
" 	c None",
".	c blank",
"+	c blank",
"@	c #D83000",
"#	c #F85800",
"$	c #F88800",
"%	c #F89800",
"&	c #F8C000",
"................................................................",
"................................................................",
"................................................................",
"................................................................",
"................++++++++++++++++++++++++++++++++................",
"................++++++++++++++++++++++++++++++++................",
"................++++++++++++++++++++++++++++++++................",
"................++++++++++++++++++++++++++++++++................",
"................++++++++++++++++++++++++++++++++................",
"................++++++++++++++++++++++++++++++++................",
"................+++++++++++++++@++++++++++++++++................",
"................+++++++++++++++@@+++++++++++++++................",
"................+++++++++++++++@@@++++++++++++++................",
"................+++++++++++++++@@@++++++++++++++................",
"................++++++++++++++@@++++++++++++++++................",
"................++++++++++++@@++++++++++++++++++................",
"................++++++++++++@@++++++++++++++++++................",
"................+++++++++++@@#@+++++++++++++++++................",
"................+++++++++++@@##@@@@+++++++++++++................",
"................+++++++++++@@#$$$$#@@+++++++++++................",
"................++++++++++++@@$$$$$#@@++++++++++................",
"................+++++++++++++@#$$%%$#@++++++++++................",
"................++++++++++++++@@#%%$#@++++++++++................",
"................+++++++++++++++@@$$$#@++++++++++................",
"................+++++++++++++++@@$$#@+++++++++++................",
"................++++++++++++++@@#$#@++++++++++++................",
"................+++++++++++++@@#$$#@++++++++++++................",
"................+++++++++++++##$$$$#@@++++++++++................",
"................+++++++++++@@#$$%%%%$#@+++++++++................",
"................++++++++++@#$$%%%%%%%$#@++++++++................",
"................+++++++++@#$%%%%%%%%%%%@@+++++++................",
"................+++++++++@#%%%%%%%%%%%%#@@@@++++................",
"................+++++++++@#$%%%%%%%%&&%%##@@@+++................",
"................@++++++++@@#$%%%%%%&&&&%%%$#@@++................",
"................@@++++++@@@@#$%%%%%&&&&&%%%$#@@+................",
"................+@+++++@@##@####$%%%&&&&%%%%$#@+................",
"................++++++@#$$$########$%%&&&%%%%#@@................",
"................+++++@#$%%$##$$$#####$%%&%%%%$@@................",
"................+++++@$%%%##$%&&%$####$%%%%%%$@@................",
"................++++@#%%%$#%&&&&&&%$###%%%%%$#@+................",
"................++++@#%%%$%&&&&&&&&%$###%%%%#@@+................",
"................++++@$%%%%&&&&&&&&&&%###%%%$#@++................",
"................++++@$%%%&&&&&&&&&&&&###%%%#@@++................",
"................++++@$%%%&&&&&&&&&&&&$##%%%#@@++................",
"................++++@#%%%&&&&&&&&&&&&%##%%%#@@++................",
"................++++@#%%%&&&&&&&&&&&%$#$%%%$@@++................",
"................++++@@$%%%&&&&&&&&&%%##%%%%$#@++................",
"................+++++@$%%%&&&&&&&%%%$#%%%%%%$@@+................",
"................+++++@#$%%%&&&%%%%$##$%%%%%%$#@+................",
"................+++@+@@#$$%%&&%%%$$$%%%%%%%%$#@+................",
"................+++@@@@##$%%&&&&&%%%%%&&%%%%$@@+................",
"................+++@@#$$$%%%&&&&&%%%%%&&%%%$$@++................",
"................++++@##$%%%%%&&&%%%%%%%%%%$$#@++................",
"................++++@@###$%%%%%%%%$$$%%%%$$##@++................",
"................+++++@@###$%%%%%$$###$$$####@+++................",
"................++++++@@@##$$$$#########@@##@+++................",
"................+++++++@@@#######@@@@@#@@+#@++++................",
"................+++++++++@@@###@@@+++@@@+#@+++++................",
"................+++++++++++@@@@@++++++++++++++++................",
"................++++++++++++++++++++++++++++++++................",
"................................................................",
"................................................................",
"................................................................",
"................................................................"};
